<svg xmlns="http://www.w3.org/2000/svg" xmlns:xlink="http://www.w3.org/1999/xlink" viewBox="0 0 256 256"><defs><style>.cls-1{fill:#003;}.cls-2{fill:url(#linear-gradient);}.cls-3{fill:url(#linear-gradient-2);}</style><linearGradient id="linear-gradient" x1="7168.2" y1="7200.01" x2="7264.82" y2="7200.01" gradientUnits="userSpaceOnUse"><stop offset="0" stop-color="#00bae9"/><stop offset="0.99" stop-color="#00e5c6"/></linearGradient><linearGradient id="linear-gradient-2" x1="7140.29" y1="7200.12" x2="7235.5" y2="7200.12" gradientUnits="userSpaceOnUse"><stop offset="0" stop-color="#fff"/><stop offset="0" stop-color="#0089b5"/><stop offset="1" stop-color="#00d7d2"/><stop offset="1" stop-color="#000506"/><stop offset="1"/></linearGradient></defs><title>ic_main_w_256_h_256_mipmap</title><g id="BG"><rect class="cls-1" width="256" height="256" rx="21.81"/></g><g id="ICO"><path id="Right" class="cls-2" d="M7168.82,7205.84,7238,7259.9s8.23,3.2,12.19,2.62,11.74-2.93,13.27-10,1.41-28.91,1.41-28.91v-71.94s-1.53-6.7-5.36-9.7-10.28-4.47-10.28-4.47-7.21-.77-12.25,3.45-33.58,28.46-33.58,28.46l13.47,11.81,30.13-25.66.24,89.1-52.52-40.46a38,38,0,0,0-7.4-3.25,21.78,21.78,0,0,0-11.43.38c-3.25,1.21-8.17,3.51-7.6,4Z" transform="translate(-7071.5 -7071.5)"/><path class="cls-3" d="M7188.1,7221.41l-29.81,23.35s-.47.14-.56-.72.34-88.43.34-88.43L7211,7199.5s4.19,2.38,4.51,2.38a29.16,29.16,0,0,0,3.55.79c.52,0,3,.28,5.28.13s6.64-.85,8.36-2.17,2.38-1.39,2.62-1.72.7-1.45-2.47-3.59-63.82-53.79-63.82-53.79a16,16,0,0,0-5.65-3.44c-3.51-1.25-10.85-.29-10.85-.29a56.63,56.63,0,0,0-5.42,2.68c-1.76,1.08-4.95,6.61-4.95,6.61a12,12,0,0,0-1.32,5.18c.14,2.35-.56,94.44-.56,94.44s.95,6.77,2.23,7.41,3,6.49,8.77,7.76,12.06,1.51,14.81-1.25,22.55-17.09,22.55-17.09l13.9-11.21Z" transform="translate(-7071.5 -7071.5)"/></g></svg>